<?xml version="1.0" encoding="utf-8"?>
<!-- Generator: Adobe Illustrator 25.4.1, SVG Export Plug-In . SVG Version: 6.00 Build 0)  -->
<svg version="1.1" id="Livello_1" xmlns="http://www.w3.org/2000/svg" xmlns:xlink="http://www.w3.org/1999/xlink" x="0px" y="0px"
	 viewBox="0 0 512 512" style="enable-background:new 0 0 512 512;" xml:space="preserve">
<g>
	<path d="M139.7,465c0-15.4,0-30.5,0-46c-15.4,0-30.6,0-46.2,0c-0.1-1.5-0.2-2.6-0.2-3.7c0-13.4,0.1-26.8-0.1-40.3
		c0-2.7,0.9-3.3,3.4-3.3c29,0.1,58.1,0.1,87.1,0c2.3,0,3.1,0.7,3.1,3c-0.1,44.7-0.1,89.3,0,134c0,2.5-0.8,3.2-3.2,3.2
		c-60.1-0.1-120.1-0.1-180.2,0c-2.6,0-3.1-0.9-3.1-3.3c0.1-75.5,0.1-151,0.1-226.4c0-0.9,0.1-1.8,0.2-2.9c170.4,0,340.6,0,511.1,0
		c0,77.4,0,154.7,0,232.4c-1.2,0.1-2.3,0.2-3.4,0.2c-59.8,0-119.5,0-179.3,0.1c-2.8,0-3.5-0.9-3.5-3.6c0.1-44.2,0-88.5,0.1-132.7
		c0-1.1,0.1-2.3,0.2-3.6c31.1,0,61.9,0,93.1,0c0.1,0.9,0.2,1.8,0.2,2.7c0,10.1,0.1,20.1,0,30.2c0,3.8-0.5,7.5-0.5,11.3
		c0,2.5-1.7,2.4-3.2,2.4c-6.1,0.1-12.1,0.2-18.2,0.2c-8.1,0-16.1,0-24.4,0c0,15.5,0,30.7,0,46.2c1.2,0.1,2.2,0.1,3.2,0.1
		c28.6,0,57.2,0,85.9,0.1c2.9,0,3.5-0.9,3.5-3.6c-0.1-8.2-0.1-16.4,0-24.5c0.1-8.1,0.4-16.3,0.4-24.4c-0.1-27.9-0.3-55.7-0.4-83.6
		c0-0.9,0-1.9,0-3c-61.9,0-123.6,0-185.7,0c0,61.8,0,123.6,0,185.6c-15.7,0-31.1,0-46.7,0c0-61.9,0-123.6,0-185.8
		c-1.4,0-2.5,0-3.6,0c-59.3,0-118.7,0-178-0.1c-3.2,0-4.3,0.7-4.2,4.1c0.1,43.7,0.1,87.4,0.1,131.1c0,1.2,0.1,2.5,0.2,3.9
		C78.1,465,108.8,465,139.7,465z"/>
	<path d="M279.6,0c0,62.2,0,123.9,0,185.8c61.9,0,123.5,0,185.4,0c0-46.2,0-92.4,0-138.9c-30.7,0-61.4,0-92.2,0c0,15.3,0,30.5,0,46
		c15.3,0,30.5,0,46,0c0,15.8,0,31.2,0,47.2c-1.4,0-2.7,0-4,0c-28.6,0-57.2,0-85.9,0.1c-2.6,0-3.4-0.7-3.4-3.3
		c0.1-44.6,0.1-89.1,0.1-133.7c0-0.9,0.1-1.8,0.2-2.9c62,0,123.8,0,185.9,0c0,77.4,0,154.8,0,232.3c-170.3,0-340.5,0-511,0
		c0-77.4,0-154.7,0-232.3c61.9,0,123.8,0,186,0c0.1,1.2,0.2,2.3,0.2,3.4c0,44.1,0,88.3,0.1,132.4c0,3-0.5,4.1-3.9,4.1
		c-28.6-0.1-57.2-0.1-85.9,0c-3,0-3.9-0.7-3.9-3.8c0.2-13.2,0.1-26.4,0.1-39.6c0-1,0-2.1,0-3.5c15.5,0,30.7,0,46.2,0
		c0-15.6,0-30.8,0-46.4c-1.1-0.1-2.3-0.2-3.4-0.2c-28.5,0-57,0-85.5-0.1c-2.7,0-3.6,0.7-3.6,3.5c0.1,44.3,0,88.7,0.1,133
		c0,0.8,0.1,1.6,0.2,2.7c61.8,0,123.5,0,185.6,0c0-1.4,0-2.8,0-4.1c0-59.2,0-118.5,0-177.7c0-4,0-4,4.1-4c12.8,0,25.6,0,38.4,0
		C276.6,0,277.8,0,279.6,0z"/>
</g>
</svg>
