<svg width="57" height="65" viewBox="0 0 57 65" fill="none" xmlns="http://www.w3.org/2000/svg">
<path d="M39.1888 26.2018V57.6975L33.7357 60.8509L28.2783 64.0001V32.5001L33.7357 29.3509L39.1888 26.2018Z" fill="white" stroke="#002B4D" stroke-linecap="round" stroke-linejoin="round"/>
<path d="M55.5565 16.7501L50.1034 19.8992L44.646 23.0483L39.1887 19.8992L33.7356 16.7501L39.1887 13.6009L44.646 10.4518L50.1034 13.6009L55.5565 16.7501Z" fill="white" stroke="#002B4D" stroke-linecap="round" stroke-linejoin="round"/>
<path d="M39.1888 7.29834V13.6009L33.7357 16.7501V23.0483L28.2783 19.8992V13.6009L33.7357 10.4518L39.1888 7.29834Z" fill="white" stroke="#002B4D" stroke-linecap="round" stroke-linejoin="round"/>
<path d="M28.2781 13.6009V19.8992L22.8208 23.0483V16.7501L17.3677 13.6009V7.29834L22.8208 10.4518L28.2781 13.6009Z" fill="white" stroke="#002B4D" stroke-linecap="round" stroke-linejoin="round"/>
<path d="M39.1886 7.29828L33.7355 10.4517L28.2781 13.6009L22.8208 10.4517L17.3677 7.29828L22.8208 4.14914L28.2781 1L33.7355 4.14914L39.1886 7.29828Z" fill="white" stroke="#002B4D" stroke-linecap="round" stroke-linejoin="round"/>
<path d="M11.9104 23.0482V54.5482L6.45737 51.399L1 48.2499V16.7499L6.45737 19.899L11.9104 23.0482Z" fill="white" stroke="#002B4D" stroke-linecap="round" stroke-linejoin="round"/>
<path d="M22.8208 16.7499V23.0482L17.3678 26.2016V51.399L11.9104 54.5482V23.0482L22.8208 16.7499Z" fill="white" stroke="#002B4D" stroke-linecap="round" stroke-linejoin="round"/>
<path d="M22.8209 16.7501L11.9104 23.0483L6.45737 19.8992L1 16.7501L6.45737 13.6009L11.9104 10.4518L22.8209 16.7501Z" fill="white" stroke="#002B4D" stroke-linecap="round" stroke-linejoin="round"/>
<path d="M28.2781 32.5001V64.0001L22.8208 60.8509L17.3677 57.6975V26.2018L22.8208 29.3509L28.2781 32.5001Z" fill="white" stroke="#002B4D" stroke-linecap="round" stroke-linejoin="round"/>
<path d="M39.1886 26.2017L33.7355 29.3509L28.2781 32.5L22.8208 29.3509L17.3677 26.2017L22.8208 23.0483L28.2781 19.8992L33.7355 23.0483L39.1886 26.2017Z" fill="white" stroke="#002B4D" stroke-linecap="round" stroke-linejoin="round"/>
<path d="M55.5564 16.7499V48.2499L50.1034 51.399L44.646 54.5482V23.0482L50.1034 19.899L55.5564 16.7499Z" fill="white" stroke="#002B4D" stroke-linecap="round" stroke-linejoin="round"/>
<path d="M44.646 23.0482V54.5482L39.1887 51.399V26.2016L33.7356 23.0482V16.7499L39.1887 19.899L44.646 23.0482Z" fill="white" stroke="#002B4D" stroke-linecap="round" stroke-linejoin="round"/>
</svg>
