<?xml version="1.0" encoding="utf-8"?>
<!-- Generator: Adobe Illustrator 25.4.1, SVG Export Plug-In . SVG Version: 6.00 Build 0)  -->
<svg version="1.1" xmlns="http://www.w3.org/2000/svg" xmlns:xlink="http://www.w3.org/1999/xlink" x="0px" y="0px"
	 viewBox="0 0 1200 800" style="enable-background:new 0 0 1200 800;" xml:space="preserve">
<style type="text/css">
	.st0{clip-path:url(#SVGID_00000050641337674378351000000012392151833015141548_);}
	.st1{fill:#FFFFFF;}
</style>
<g id="Background">
</g>
<g id="Graphic_Elements">
	<g>
		<defs>
			<rect id="SVGID_1_" transform="matrix(-1 -1.224647e-16 1.224647e-16 -1 1200 800)" width="1200" height="800"/>
		</defs>
		<clipPath id="SVGID_00000034769585001831547510000012306128350147146662_">
			<use xlink:href="#SVGID_1_"  style="overflow:visible;"/>
		</clipPath>
		<g style="clip-path:url(#SVGID_00000034769585001831547510000012306128350147146662_);">
			<g>
				<g>
					<g>
						<g>
							<polygon class="st1" points="2026.8,502.7 1949.6,358.9 1948.5,359.4 2026.8,505.1 							"/>
						</g>
						<g>
							<polygon class="st1" points="2026.8,778.2 1847.9,358.9 1846.8,359.4 2026.8,781.2 							"/>
						</g>
						<g>
							<polygon class="st1" points="1930,940 1746.2,359 1745.1,359.3 1928.7,940 							"/>
						</g>
						<g>
							<polygon class="st1" points="1764.1,940 1644.5,359.1 1643.4,359.3 1762.9,940 							"/>
						</g>
						<g>
							<polygon class="st1" points="1598.3,940 1542.8,359.1 1541.7,359.2 1597.1,940 							"/>
						</g>
						<g>
							<polygon class="st1" points="1432.5,940 1441.1,359.2 1439.9,359.2 1431.3,940 							"/>
						</g>
						<g>
							<polygon class="st1" points="1266.6,940 1339.4,359.2 1338.2,359.1 1265.5,940 							"/>
						</g>
						<g>
							<polygon class="st1" points="1100.8,940 1237.7,359.3 1236.5,359 1099.6,940 							"/>
						</g>
						<g>
							<polygon class="st1" points="935,940 1136,359.4 1134.9,359 933.8,940 							"/>
						</g>
						<g>
							<polygon class="st1" points="769.2,940 1034.2,359.4 1033.2,358.9 767.9,940 							"/>
						</g>
						<g>
							<polygon class="st1" points="603.4,940 932.5,359.5 931.5,358.9 602.1,940 							"/>
						</g>
						<g>
							<polygon class="st1" points="437.6,940 830.8,359.5 829.8,358.9 436.2,940 							"/>
						</g>
						<g>
							<polygon class="st1" points="271.8,940 729,359.5 728.1,358.8 270.4,940 							"/>
						</g>
						<g>
							<polygon class="st1" points="106.1,940 627.3,359.6 626.4,358.8 104.5,940 							"/>
						</g>
						<g>
							<polygon class="st1" points="-59.7,940 525.6,359.6 524.8,358.8 -61.4,940 							"/>
						</g>
					</g>
					<g>
						<g>
							<rect x="525.2" y="358.6" class="st1" width="1501.6" height="1.2"/>
						</g>
						<g>
							<rect x="492.2" y="391.3" class="st1" width="1534.6" height="1.2"/>
						</g>
						<g>
							<rect x="457.7" y="425.3" class="st1" width="1569.1" height="1.2"/>
						</g>
						<g>
							<rect x="421.9" y="460.7" class="st1" width="1604.9" height="1.2"/>
						</g>
						<g>
							<rect x="384.5" y="497.7" class="st1" width="1642.3" height="1.2"/>
						</g>
						<g>
							<rect x="345.4" y="536.2" class="st1" width="1681.4" height="1.2"/>
						</g>
						<g>
							<rect x="304.6" y="576.4" class="st1" width="1722.2" height="1.2"/>
						</g>
						<g>
							<rect x="262.2" y="618.5" class="st1" width="1764.6" height="1.2"/>
						</g>
						<g>
							<rect x="217.7" y="662.5" class="st1" width="1809.1" height="1.2"/>
						</g>
						<g>
							<rect x="122.1" y="756.8" class="st1" width="1904.7" height="1.2"/>
						</g>
						<g>
							<rect x="171" y="708.5" class="st1" width="1855.8" height="1.2"/>
						</g>
						<g>
							<rect x="70.8" y="807.5" class="st1" width="1956" height="1.2"/>
						</g>
						<g>
							<rect x="-39.8" y="916.9" class="st1" width="2066.6" height="1.2"/>
						</g>
						<g>
							<rect x="16.9" y="860.8" class="st1" width="2009.9" height="1.2"/>
						</g>
					</g>
				</g>
			</g>
			<g>
				<g>
					<g>
						<g>
							<rect x="1949" y="-769.4" class="st1" width="1.2" height="1128.6"/>
						</g>
						<g>
							<rect x="1847.3" y="-769.4" class="st1" width="1.2" height="1128.6"/>
						</g>
						<g>
							<rect x="1745.5" y="-769.4" class="st1" width="1.2" height="1128.6"/>
						</g>
						<g>
							<rect x="1643.8" y="-769.4" class="st1" width="1.2" height="1128.6"/>
						</g>
						<g>
							<rect x="1542" y="-769.4" class="st1" width="1.2" height="1128.6"/>
						</g>
						<g>
							<rect x="1440.3" y="-769.4" class="st1" width="1.2" height="1128.6"/>
						</g>
						<g>
							<rect x="1338.6" y="-769.4" class="st1" width="1.2" height="1128.6"/>
						</g>
						<g>
							<rect x="1236.8" y="-769.4" class="st1" width="1.2" height="1128.6"/>
						</g>
						<g>
							<rect x="1135.1" y="-769.4" class="st1" width="1.2" height="1128.6"/>
						</g>
						<g>
							<rect x="1033.3" y="-769.4" class="st1" width="1.2" height="1128.6"/>
						</g>
						<g>
							<rect x="931.6" y="-769.4" class="st1" width="1.2" height="1128.6"/>
						</g>
						<g>
							<rect x="829.8" y="-769.4" class="st1" width="1.2" height="1128.6"/>
						</g>
						<g>
							<rect x="728.1" y="-769.4" class="st1" width="1.2" height="1128.6"/>
						</g>
						<g>
							<rect x="626.3" y="-769.4" class="st1" width="1.2" height="1128.6"/>
						</g>
						<g>
							<rect x="524.6" y="-769.4" class="st1" width="1.2" height="1128.6"/>
						</g>
					</g>
					<g>
						<g>
							<rect x="525.2" y="-735.1" class="st1" width="1501.6" height="1.2"/>
						</g>
						<g>
							<rect x="525.2" y="-635.7" class="st1" width="1501.6" height="1.2"/>
						</g>
						<g>
							<rect x="525.2" y="-536.3" class="st1" width="1501.6" height="1.2"/>
						</g>
						<g>
							<rect x="525.2" y="-436.9" class="st1" width="1501.6" height="1.2"/>
						</g>
						<g>
							<rect x="525.3" y="-337.4" class="st1" width="1501.5" height="1.2"/>
						</g>
						<g>
							<rect x="523.4" y="-238" class="st1" width="1503.4" height="1.2"/>
						</g>
						<g>
							<rect x="525.3" y="-138.6" class="st1" width="1501.5" height="1.2"/>
						</g>
						<g>
							<rect x="525.3" y="-39.1" class="st1" width="1501.5" height="1.2"/>
						</g>
						<g>
							<rect x="525.2" y="60.3" class="st1" width="1501.6" height="1.2"/>
						</g>
						<g>
							<rect x="525.3" y="159.7" class="st1" width="1501.5" height="1.2"/>
						</g>
						<g>
							<rect x="525.2" y="259.1" class="st1" width="1501.6" height="1.2"/>
						</g>
						<g>
							<rect x="525.2" y="358.6" class="st1" width="1501.6" height="1.2"/>
						</g>
					</g>
				</g>
			</g>
			<g>
				<g>
					<g>
						<g>
							<rect x="-539" y="-769.4" class="st1" width="1.2" height="1709.4"/>
						</g>
						<g>
							<rect x="-454.5" y="-769.4" class="st1" width="1.2" height="1709.4"/>
						</g>
						<g>
							<rect x="-375.1" y="-769.4" class="st1" width="1.2" height="1709.4"/>
						</g>
						<g>
							<rect x="-300.4" y="-769.4" class="st1" width="1.2" height="1709.4"/>
						</g>
						<g>
							<rect x="-229.9" y="-769.4" class="st1" width="1.2" height="1709.4"/>
						</g>
						<g>
							<rect x="-163.2" y="-769.4" class="st1" width="1.2" height="1709.4"/>
						</g>
						<g>
							<rect x="-100.2" y="-769.4" class="st1" width="1.2" height="1709.4"/>
						</g>
						<g>
							<rect x="-40.4" y="-769.4" class="st1" width="1.2" height="1686.9"/>
						</g>
						<g>
							<rect x="16.3" y="-769.4" class="st1" width="1.2" height="1630.8"/>
						</g>
						<g>
							<rect x="70.2" y="-769.4" class="st1" width="1.2" height="1577.5"/>
						</g>
						<g>
							<rect x="121.5" y="-769.4" class="st1" width="1.2" height="1526.8"/>
						</g>
						<g>
							<rect x="170.4" y="-769.4" class="st1" width="1.2" height="1478.5"/>
						</g>
						<g>
							<rect x="217" y="-769.4" class="st1" width="1.2" height="1432.5"/>
						</g>
						<g>
							<rect x="261.5" y="-769.4" class="st1" width="1.2" height="1388.5"/>
						</g>
						<g>
							<rect x="304.1" y="-769.4" class="st1" width="1.2" height="1346.4"/>
						</g>
						<g>
							<rect x="344.8" y="-769.4" class="st1" width="1.2" height="1306.2"/>
						</g>
						<g>
							<rect x="383.8" y="-769.4" class="st1" width="1.2" height="1267.7"/>
						</g>
						<g>
							<rect x="421.2" y="-769.4" class="st1" width="1.2" height="1230.7"/>
						</g>
						<g>
							<rect x="457" y="-769.4" class="st1" width="1.2" height="1195.3"/>
						</g>
						<g>
							<rect x="491.5" y="-769.4" class="st1" width="1.2" height="1161.2"/>
						</g>
						<g>
							<rect x="524.6" y="-769.4" class="st1" width="1.2" height="1128.5"/>
						</g>
					</g>
					<g>
						<g>
							<polygon class="st1" points="-251.4,-769.4 -590.5,-697.5 -590.5,-696.4 -245.9,-769.4 							"/>
						</g>
						<g>
							<polygon class="st1" points="285.3,-769.4 -590.5,-531.5 -590.5,-530.3 289.7,-769.4 							"/>
						</g>
						<g>
							<polygon class="st1" points="-590.5,-364.2 525.3,-734 525,-735.1 -590.5,-365.5 							"/>
						</g>
						<g>
							<polygon class="st1" points="-590.5,-198.2 525.4,-634.6 524.9,-635.7 -590.5,-199.4 							"/>
						</g>
						<g>
							<polygon class="st1" points="-590.5,-32.1 525.4,-535.2 524.9,-536.2 -590.5,-33.4 							"/>
						</g>
						<g>
							<polygon class="st1" points="-590.5,133.9 525.4,-435.8 524.9,-436.8 -590.5,132.6 							"/>
						</g>
						<g>
							<polygon class="st1" points="-590.5,300 525.4,-336.3 524.9,-337.3 -590.5,298.7 							"/>
						</g>
						<g>
							<polygon class="st1" points="-590.5,466.1 525.5,-236.9 524.9,-237.9 -590.5,464.7 							"/>
						</g>
						<g>
							<polygon class="st1" points="-590.5,632.1 525.5,-137.5 524.8,-138.5 -590.5,630.7 							"/>
						</g>
						<g>
							<polygon class="st1" points="-590.5,798.2 525.5,-38.1 524.8,-39 -590.5,796.7 							"/>
						</g>
						<g>
							<polygon class="st1" points="-560.6,940 525.5,61.3 524.8,60.4 -562.4,940 							"/>
						</g>
						<g>
							<polygon class="st1" points="-371.5,940 525.5,160.7 524.8,159.8 -373.2,940 							"/>
						</g>
						<g>
							<polygon class="st1" points="-206.7,940 525.6,260.1 524.8,259.3 -208.4,940 							"/>
						</g>
						<g>
							<polygon class="st1" points="-61.8,940 525.6,359.5 524.8,358.7 -63.5,940 							"/>
						</g>
					</g>
				</g>
			</g>
		</g>
	</g>
</g>
</svg>
