<?xml version="1.0" encoding="utf-8"?>
<!-- Generator: Adobe Illustrator 26.3.1, SVG Export Plug-In . SVG Version: 6.00 Build 0)  -->
<svg version="1.1" id="Livello_1" xmlns="http://www.w3.org/2000/svg" xmlns:xlink="http://www.w3.org/1999/xlink" x="0px" y="0px"
	 viewBox="0 0 1453 1444" style="enable-background:new 0 0 1453 1444;" xml:space="preserve">
<style type="text/css">
	.st0{fill:none;stroke:#FFFFFF;stroke-width:0.25;stroke-linecap:round;stroke-linejoin:round;stroke-opacity:0.7;}
	.st1{fill-rule:evenodd;clip-rule:evenodd;fill:#FFFFFF;filter:url(#Adobe_OpacityMaskFilter);}
	.st2{mask:url(#mask0_12_191_00000169533181949260558390000009363963751249511101_);}
</style>
<g>
	<path class="st0" d="M1451.7,1L953.5,496.2v452.4l498.2,494.6"/>
	<path class="st0" d="M1451.4,241.7l-384.2,254.5l0,452.4l384.2,255.2"/>
	<path class="st0" d="M1451.4,482l-43,14.2l0,452.4l43,14.3"/>
	<path class="st0" d="M362.5,1l249.8,495.2l0,452.4l-248.8,494.7"/>
	<path class="st0" d="M1451.4,361.9L1181,496.2v452.4l270.4,134.7"/>
	<path class="st0" d="M1,242.3l383.8,254l0,452.4L1,1203.3"/>
	<path class="st0" d="M1,362.2l270,134v452.4L1,1083"/>
	<path class="st0" d="M1,434.2l156.3,62.1v452.4L1,1010.9"/>
	<path class="st0" d="M1,482.1l42.6,14.1v452.4L1,962.8"/>
	<path class="st0" d="M1088.6,1L839.8,496.2v452.4l248,494.6"/>
	<path class="st0" d="M1451.4,433.9l-156.7,62.3l0,452.4l156.7,62.4"/>
	<path class="st0" d="M725.6,1l0.5,495.2v446.3l-0.4,500.8"/>
	<path class="st0" d="M1.3,1l497.2,495.2l0,452.4L1.3,1443.3"/>
	<path class="st0" d="M1451.7,456.2H1.3"/>
	<path class="st0" d="M1451.7,430.3H1.3"/>
	<path class="st0" d="M1451.7,359.9H1.3"/>
	<path class="st0" d="M1451.7,154.2H1.3"/>
	<path class="st0" d="M1451.7,310.1H1.3"/>
	<path class="st0" d="M1451.7,398.9H1.3"/>
	<path class="st0" d="M1451.7,477.8H1.3"/>
	<path class="st0" d="M1451.7,244.6H1.3"/>
	<path class="st0" d="M1451.4,1135.3H1"/>
	<path class="st0" d="M1451.4,1085.4H1"/>
	<path class="st0" d="M1451.4,1046.3H1"/>
	<path class="st0" d="M1451.4,1201H1"/>
	<path class="st0" d="M1451.4,1014.7H1"/>
	<path class="st0" d="M1451.4,988.8H1"/>
	<path class="st0" d="M1451.4,967.1H1"/>
	<path class="st0" d="M1451.4,1291.7H1"/>
	<path class="st0" d="M1451.4,948.7H1"/>
	<path class="st0" d="M1.7,496.2H1452"/>
	<path class="st0" d="M1.7,609.3H1452"/>
	<path class="st0" d="M1.7,722.4H1452"/>
	<path class="st0" d="M1.7,835.5H1452"/>
	<defs>
		<filter id="Adobe_OpacityMaskFilter" filterUnits="userSpaceOnUse" x="1.2" y="1443.2" width="1448.8" height="0.2">
			<feColorMatrix  type="matrix" values="1 0 0 0 0  0 1 0 0 0  0 0 1 0 0  0 0 0 1 0"/>
		</filter>
	</defs>
	
		<mask maskUnits="userSpaceOnUse" x="1.2" y="1443.2" width="1448.8" height="0.2" id="mask0_12_191_00000169533181949260558390000009363963751249511101_">
		<path class="st1" d="M1.3,1442.2h1448.5v1.4H1.3V1442.2z"/>
	</mask>
	<g class="st2">
		<path class="st0" d="M1449.9,1443.3H1.3"/>
	</g>
</g>
</svg>
