<svg width="96" height="110" viewBox="0 0 96 110" fill="none" xmlns="http://www.w3.org/2000/svg">
<path d="M66.4664 44.2031V98.1957L57.1183 103.602L47.7628 109V55.0002L57.1183 49.6017L66.4664 44.2031Z" fill="#FEF3EC" stroke="#002B4D" stroke-linecap="round" stroke-linejoin="round"/>
<path d="M94.5254 27.9999L85.1773 33.3985L75.8218 38.797L66.4663 33.3985L57.1182 27.9999L66.4663 22.6014L75.8218 17.2029L85.1773 22.6014L94.5254 27.9999Z" fill="#FEF3EC" stroke="#002B4D" stroke-linecap="round" stroke-linejoin="round"/>
<path d="M66.4664 11.7971V22.6015L57.1183 28.0001V38.7971L47.7628 33.3986V22.6015L57.1183 17.203L66.4664 11.7971Z" fill="#FEF3EC" stroke="#002B4D" stroke-linecap="round" stroke-linejoin="round"/>
<path d="M47.7627 22.6015V33.3986L38.4072 38.7971V28.0001L29.0591 22.6015V11.7971L38.4072 17.203L47.7627 22.6015Z" fill="#FEF3EC" stroke="#002B4D" stroke-linecap="round" stroke-linejoin="round"/>
<path d="M66.4663 11.7971L57.1182 17.2029L47.7627 22.6015L38.4072 17.2029L29.0591 11.7971L38.4072 6.39853L47.7627 1L57.1182 6.39853L66.4663 11.7971Z" fill="#FEF3EC" stroke="#002B4D" stroke-linecap="round" stroke-linejoin="round"/>
<path d="M19.7036 38.7971V92.797L10.3555 87.3985L1 82V28L10.3555 33.3985L19.7036 38.7971Z" fill="#FEF3EC" stroke="#002B4D" stroke-linecap="round" stroke-linejoin="round"/>
<path d="M38.4071 28V38.7971L29.059 44.2029V87.3985L19.7035 92.797V38.7971L38.4071 28Z" fill="#FEF3EC" stroke="#002B4D" stroke-linecap="round" stroke-linejoin="round"/>
<path d="M38.4072 27.9999L19.7036 38.797L10.3555 33.3985L1 27.9999L10.3555 22.6014L19.7036 17.2029L38.4072 27.9999Z" fill="#FEF3EC" stroke="#002B4D" stroke-linecap="round" stroke-linejoin="round"/>
<path d="M47.7627 55.0002V109L38.4072 103.602L29.0591 98.1957V44.2031L38.4072 49.6017L47.7627 55.0002Z" fill="#FEF3EC" stroke="#002B4D" stroke-linecap="round" stroke-linejoin="round"/>
<path d="M66.4663 44.2031L57.1182 49.6016L47.7627 55.0001L38.4072 49.6016L29.0591 44.2031L38.4072 38.7972L47.7627 33.3987L57.1182 38.7972L66.4663 44.2031Z" fill="#FEF3EC" stroke="#002B4D" stroke-linecap="round" stroke-linejoin="round"/>
<path d="M94.5253 28V82L85.1772 87.3985L75.8217 92.797V38.7971L85.1772 33.3985L94.5253 28Z" fill="#FEF3EC" stroke="#002B4D" stroke-linecap="round" stroke-linejoin="round"/>
<path d="M75.8218 38.7971V92.797L66.4663 87.3985V44.2029L57.1182 38.7971V28L66.4663 33.3985L75.8218 38.7971Z" fill="#FEF3EC" stroke="#002B4D" stroke-linecap="round" stroke-linejoin="round"/>
</svg>
