<svg width="195" height="37" viewBox="0 0 195 37" fill="none" xmlns="http://www.w3.org/2000/svg">
<g clip-path="url(#clip0_1_100)">
<path d="M47.3584 30.6179V8.77973H57.1213C58.9703 8.73257 60.8105 9.04966 62.5372 9.71298C63.9268 10.2437 65.1328 11.1664 66.0091 12.3692C66.8096 13.6021 67.2357 15.041 67.2357 16.5114C67.2357 17.9818 66.8096 19.4206 66.0091 20.6536C65.1355 21.8591 63.9286 22.7824 62.5372 23.3098C60.809 23.9671 58.9695 24.2816 57.1213 24.2359H49.7973L51.7628 22.3909V30.6036L47.3584 30.6179ZM51.7628 22.8432L49.7973 20.9049H56.9205C58.862 20.9049 60.3278 20.5196 61.3177 19.7491C61.795 19.3656 62.174 18.8739 62.4235 18.3146C62.673 17.7553 62.7857 17.1445 62.7524 16.5329C62.7905 15.9207 62.68 15.3084 62.4301 14.7483C62.1803 14.1883 61.7986 13.6971 61.3177 13.3168C60.3278 12.5989 58.8644 12.1897 56.9205 12.1897H49.7973L51.7628 10.194V22.8432ZM62.8887 30.6179L56.8846 22.6852H61.6046L67.6374 30.6179H62.8887Z" fill="white"/>
<path d="M76.561 27.2152H89.9608V30.618H72.1494V8.77979H89.4802V12.1826H76.5682L76.561 27.2152ZM76.2239 17.8467H88.024V21.1849H76.2239V17.8467Z" fill="white"/>
<path d="M99.6951 30.618V12.1898H91.8044V8.77979H111.947V12.2113H104.056V30.6395L99.6951 30.618Z" fill="white"/>
<path d="M115.297 30.6179V8.77975H125.067C126.914 8.73316 128.751 9.05025 130.476 9.713C131.87 10.2535 133.077 11.189 133.948 12.4051C134.748 13.6381 135.174 15.0769 135.174 16.5473C135.174 18.0177 134.748 19.4566 133.948 20.6895C133.074 21.895 131.867 22.8183 130.476 23.3457C128.75 24.0024 126.913 24.317 125.067 24.2718H117.736L119.701 22.4268V30.6395L115.297 30.6179ZM119.701 22.8432L117.736 20.9049H124.859C126.801 20.9049 128.266 20.5196 129.256 19.7491C129.74 19.3694 130.126 18.8793 130.382 18.3198C130.638 17.7602 130.756 17.1476 130.727 16.5329C130.761 15.9177 130.645 15.3034 130.389 14.7431C130.132 14.1828 129.744 13.6933 129.256 13.3168C128.266 12.5989 126.803 12.1897 124.859 12.1897H117.736L119.701 10.194V22.8432ZM130.827 30.6179L124.823 22.6853H129.543L135.576 30.6179H130.827Z" fill="white"/>
<path d="M140.088 30.618V8.77979H144.5V30.6395L140.088 30.618Z" fill="white"/>
<path d="M155.317 27.2152H168.717V30.618H150.913V8.77979H168.229V12.1826H155.317V27.2152ZM154.98 17.8467H166.794V21.1849H154.98V17.8467Z" fill="white"/>
<path d="M180.316 30.618L169.936 8.77979H174.721L184.01 28.5289H181.263L190.596 8.77979H195.007L184.656 30.618H180.316Z" fill="white"/>
<path d="M0 0V36.9713H15.7024V30.5964H6.3771V6.37486H25.8384L30.5799 11.1201V24.2431H36.957V9.02387L27.9473 0.0071859L0 0Z" fill="white"/>
<path d="M15.7025 24.236H30.5728V37H24.2172V30.5965H15.7025V24.236Z" fill="white"/>
</g>
<defs>
<clipPath id="clip0_1_100">
<rect width="195" height="37" fill="white"/>
</clipPath>
</defs>
</svg>
