<?xml version="1.0" encoding="utf-8"?>
<!-- Generator: Adobe Illustrator 25.4.1, SVG Export Plug-In . SVG Version: 6.00 Build 0)  -->
<svg version="1.1" id="Livello_1" xmlns="http://www.w3.org/2000/svg" xmlns:xlink="http://www.w3.org/1999/xlink" x="0px" y="0px"
	 viewBox="0 0 192 192" style="enable-background:new 0 0 192 192;" xml:space="preserve">
<style type="text/css">
	.st0{fill:#222222;}
</style>
<g id="KljPe1.tif_00000144334712995433412580000003746191602165491873_">
	<g>
		<path class="st0" d="M9.2,95.8c0-11.3,0.1-22.6,0-34c0-4.2,1-8,2.7-11.8c1.1-2.5,2.6-4.7,4.5-6.6c0.6-0.6,66.8-40.1,68.9-41.1
			c2.2-1,4.5-1.8,6.9-1.9C93,0.4,93.8,0,94.6,0c1.6-0.1,3.1,0.1,4.7,0.4c1.4,0.3,2.8,0.5,4.3,0.9c1.7,0.4,3.2,1.1,4.6,1.9
			c1.4,0.7,61.3,34.9,64.1,37.2c3.9,3.2,6.6,7.3,8.8,11.8c-0.1,2,1.5,3.7,1.1,5.7c1,2.6,0.5,5.3,0.5,8c0,21.5,0,43.1,0,64.6
			c0,1.3-0.3,2.6-0.5,3.9c-0.2,1.3-0.7,2.5-0.9,3.7c-0.2,1.7-1.2,3-1.7,4.5c-0.7,1.8-1.8,3.3-3,4.7c-1.9,2.1-3.9,4.1-6.3,5.7
			c-3.3,2.3-59.6,35-62.2,36.2c-2.6,1.2-5.4,2-8.3,2.4c-1.7,0.2-3.3,0.6-4.9,0.4c-3.8-0.4-7.6-1.1-11.1-2.9
			c-4.6-2.3-8.9-5.1-13.3-7.6c-2.4-1.4-39.5-23-42.1-24.4c-4.8-3-9.7-5.8-13.5-10.2c-1.7-2-3.5-5.5-4.5-8.9
			c-0.6-2.1-1.1-4.3-1.1-6.5C9.3,119.5,9.2,107.7,9.2,95.8z M46.3,103.6c0.8,2.3,1.5,4.7,2.3,7c1.8,5.4,3.6,10.8,5.4,16.3
			c1.6,4.8,2.8,9.6,4.7,14.3c1.4,3.6,4,4.8,7.8,3.6c0.7-0.2,1.4-0.3,2-0.9c1.7-1.6,2.5-3.6,2.5-5.9c0-27.9,0-55.8,0-83.7
			c0-0.3-0.1-0.9-0.1-1.2c-0.4-1.8-0.9-3.5-2.4-4.9c-1.5-1.5-5.2-1.7-6.7-0.7c-1.9,1.2-3.2,2.7-3.2,5.2c0.1,15.5,0,30.9,0,46.4
			c-0.7,0.2,0.2,0-0.6,0.1c-0.7-1.7-1.3-3.3-1.9-5c-1.9-5.7-3.6-11.4-5.8-16.9c-1.4-3.7-2.4-7.6-3.7-11.3c-0.7-1.9-1.3-3.8-2.9-5.2
			c-1.7-1.5-4.7-2-6.7-0.9c-2,1.1-3.3,2.6-3.3,5.1c0.1,15.4,0,57.1,0,62.5c0,0.7,0,5.4,6.3,5.5c5.9,0.1,6-4.4,6-7.7
			C46.3,118,46.3,110.8,46.3,103.6z M95.8,45c3.1,1.6,5.9,2.9,8.5,4.5c2.4,1.5,4.6,1.7,7.1,0c1.1-0.7,1.9-1.6,2.3-2.7
			c0.4-1.2,0.8-2.3,0.1-3.7c-0.7-1.5-0.9-2.4-2.2-3.4c-3-2.2-6.3-3.8-9.5-5.8c-2.8-1.7-5.7-3.3-8.5-5c-2.5-1.6-5.2-2-7.8-0.2
			c-1.5,1-2.6,2.1-2.6,4.3c0.1,39.5,0.1,79.1,0,118.6c0,1.7,0.5,3,1.7,4.2c1,1,2.1,1.5,3.3,1.9c1,0.3,2.5,0.1,3.2-0.1
			c0.2-0.1,0.9-0.5,1.1-0.7c2.3-1.9,3.1-4.2,3.1-7.3c-0.1-14.9,0-29.8,0-44.8c0-0.8,0-1.7,0-2.6c3.8,0,7.5,0.1,11.2,0
			c1.2,0,2.6-0.1,3.5-0.7c1.3-0.8,2.5-2,3.1-3.5c0.6-1.3,0.4-2.6,0.1-4c-0.6-2.3-3-4.1-5.3-4.1c-3,0-5.9,0-8.9,0c-1.3,0-2.5,0-3.8,0
			V45z M145.1,73.1c1.9,1.1,3.6,1.9,5.2,2.9c2.5,1.5,5.4,2.1,8.1-0.5c0.6-0.6,1.3-1.3,1.6-1.9c0.5-1.3,0.8-3,0.2-4.9
			c-0.8-1.9-1.6-2.2-3.2-3.3c-1.8-1.3-3.8-2.4-5.8-3.4c-3.3-1.7-6.4-3.7-9.7-5.4c-1.7-0.9-3.5-1.9-5.1-2.9c-2.4-1.5-4.8-2.8-7.3-4
			c-2-1-3.4-1.1-5.1-0.2c-1.4,0.7-2.6,1.6-3.2,3.4c-0.3,1-0.2,1.8-0.3,2.7c-0.3,2.5,1.2,4.1,3.1,5.2c2.3,1.4,4.6,2.6,7.1,3.8
			c1.4,0.6,2.2,2,2.2,3.5c-0.1,21.6,0,43.2,0,64.8c0,0.4,0,0.9,0,1.3c0,1.3,0.6,2.2,1.2,3c0.4,0.6,0.5,1,1.2,1.3
			c1.4,0.8,2.5,1,3.8,1c0.8,0,2-0.3,2.7-0.8c2.3-1.8,3.6-4.1,3.6-7.3c-0.1-18.5,0-37,0-55.5C145.1,74.9,145.1,74.1,145.1,73.1z"/>
	</g>
</g>
</svg>
