<?xml version="1.0" encoding="utf-8"?>
<!-- Generator: Adobe Illustrator 25.4.1, SVG Export Plug-In . SVG Version: 6.00 Build 0)  -->
<svg version="1.1" id="Livello_1" xmlns="http://www.w3.org/2000/svg" xmlns:xlink="http://www.w3.org/1999/xlink" x="0px" y="0px"
	 viewBox="0 0 349 402" style="enable-background:new 0 0 349 402;" xml:space="preserve">
<style type="text/css">
	.st0{fill:none;stroke:#002B4D;stroke-width:7;stroke-linecap:round;stroke-linejoin:round;}
</style>
<g>
	<path class="st0" d="M242.3,161.9v195.7l-33.9,19.6l-33.9,19.6V201l33.9-19.6L242.3,161.9z"/>
	<path class="st0" d="M344,103.1l-33.9,19.6l-33.9,19.6l-34-19.6l-33.9-19.6l33.9-19.6l34-19.6l33.9,19.6L344,103.1z"/>
	<path class="st0" d="M242.3,44.4v39.1l-33.9,19.6v39.1l-33.9-19.6V83.6L208.5,64L242.3,44.4z"/>
	<path class="st0" d="M174.5,83.6v39.1l-34,19.6v-39.1l-33.9-19.6V44.4L140.5,64L174.5,83.6z"/>
	<path class="st0" d="M242.3,44.4L208.5,64l-33.9,19.6l-34-19.6l-33.9-19.6l33.9-19.6l34-19.6l33.9,19.6L242.3,44.4z"/>
	<path class="st0" d="M72.8,142.3V338L39,318.4L5,298.9V103.1l33.9,19.6L72.8,142.3z"/>
	<path class="st0" d="M140.5,103.1v39.1l-33.9,19.6v156.6L72.8,338V142.3L140.5,103.1z"/>
	<path class="st0" d="M140.5,103.1l-67.8,39.1l-33.9-19.6L5,103.1l33.9-19.6L72.7,64L140.5,103.1z"/>
	<path class="st0" d="M174.5,201v195.7l-34-19.6l-33.9-19.6V161.9l33.9,19.6L174.5,201z"/>
	<path class="st0" d="M242.3,161.9l-33.9,19.6L174.6,201l-34-19.6l-33.9-19.6l33.9-19.6l34-19.6l33.9,19.6L242.3,161.9z"/>
	<path class="st0" d="M344,103.1v195.7l-33.9,19.6L276.3,338V142.3l33.9-19.6L344,103.1z"/>
	<path class="st0" d="M276.2,142.3V338l-34-19.6V161.9l-33.9-19.6v-39.1l33.9,19.6L276.2,142.3z"/>
</g>
</svg>
