<?xml version="1.0" encoding="utf-8"?>
<!-- Generator: Adobe Illustrator 25.4.1, SVG Export Plug-In . SVG Version: 6.00 Build 0)  -->
<svg version="1.1" id="Livello_1" xmlns="http://www.w3.org/2000/svg" xmlns:xlink="http://www.w3.org/1999/xlink" x="0px" y="0px"
	 viewBox="0 0 90 81" style="enable-background:new 0 0 90 81;" xml:space="preserve">
<g>
	<path d="M5.4,46.3l0.3-0.5l19-29.7c0.3-0.4,0.9-0.4,1.1,0.1c3.2,7.1,5.9,16,4.6,21.5c-0.5,2.3-2,5.3-3.7,8.2
		c-0.2,0.4-0.5,0.8-0.7,1.2c-0.1,0.2-0.3,0.3-0.5,0.3H5.9C5.4,47.2,5.1,46.7,5.4,46.3z"/>
	<path d="M90,51.8v4.7c0,0.3-0.2,0.5-0.4,0.6c-1.5,0.6-6.5,2.9-8.6,5.9C75.7,70.4,71.6,81,62.5,81h-38C10.9,81,0,70,0,56.5v-0.4
		c0-0.4,0.3-0.7,0.7-0.7h21.2c0.4,0,0.7,0.4,0.7,0.8c-0.2,1.4,0.1,2.8,0.8,4.1c1.3,2.6,3.9,4.2,6.7,4.2h10.5v-8.2H30.1
		c-0.5,0-0.8-0.6-0.5-1.1c0.1-0.2,0.2-0.4,0.4-0.6c1-1.4,2.4-3.6,3.8-6c1-1.7,1.9-3.4,2.6-5.2c0.2-0.3,0.3-0.7,0.4-1
		c0.2-0.6,0.4-1.1,0.6-1.6c0.2-0.5,0.3-0.9,0.4-1.4c0.4-1.5,0.5-3.1,0.5-4.8c0-0.7,0-1.3-0.1-2c0-0.7-0.1-1.4-0.2-2.1
		c-0.1-0.6-0.2-1.3-0.3-1.9c-0.2-1-0.4-1.9-0.6-2.9l-0.1-0.4c-0.2-0.7-0.3-1.3-0.5-1.9c-0.6-2-1.3-4-2-5.9c-0.3-0.7-0.6-1.5-0.9-2.2
		c-0.4-1.1-0.9-2-1.3-3c-0.2-0.4-0.4-0.8-0.6-1.2c-0.2-0.4-0.4-0.9-0.6-1.3c-0.1-0.3-0.3-0.6-0.4-0.9l-1.3-2.4
		c-0.2-0.3,0.1-0.7,0.5-0.6l8,2.2h0c0,0,0,0,0,0l1.1,0.3l1.2,0.3l0.4,0.1V4.2c0-2.3,1.8-4.2,4.1-4.2c1.1,0,2.2,0.5,2.9,1.2
		C48.3,2,48.8,3,48.8,4.2v7.1l0.9,0.2c0.1,0,0.1,0.1,0.2,0.1c0.2,0.2,0.5,0.4,0.9,0.7c0.3,0.2,0.6,0.5,1,0.8
		c0.8,0.6,1.7,1.4,2.7,2.3c0.3,0.2,0.5,0.5,0.8,0.7c1.3,1.2,2.8,2.6,4.2,4.2c0.4,0.4,0.8,0.9,1.2,1.4c0.4,0.5,0.8,1,1.2,1.4
		c0.5,0.6,1,1.3,1.4,2c0.2,0.3,0.5,0.7,0.7,1c0.6,0.9,1.1,1.8,1.6,2.6c0.2,0.4,0.4,0.9,0.6,1.3c0.5,1.2,1,2.4,1.2,3.6
		c0.1,0.3,0.1,0.5,0.2,0.8v0.1c0.1,0.4,0.1,0.7,0.2,1.1c0.1,1.2,0.1,2.5-0.2,3.7c-0.1,0.5-0.3,1-0.4,1.6c-0.2,0.5-0.4,1-0.6,1.5
		c-0.4,1-1,2.1-1.6,3.1c-0.2,0.4-0.4,0.7-0.7,1.1c-0.3,0.4-0.5,0.7-0.8,1.1c-0.3,0.5-0.7,0.9-1,1.3c-0.3,0.4-0.7,0.9-1,1.3
		c-0.5,0.6-1,1.2-1.5,1.7c-0.3,0.4-0.6,0.7-1,1c-0.3,0.4-0.7,0.7-1,1c-0.5,0.5-0.9,0.9-1.3,1.2l-0.8,0.8c-0.1,0.1-0.3,0.2-0.4,0.2
		h-6.4v8.2h8c1.8,0,3.5-0.6,4.9-1.8c0.5-0.4,2.5-2.2,5-4.9c0.1-0.1,0.2-0.2,0.3-0.2l22.2-6.4C89.6,51,90,51.3,90,51.8z"/>
</g>
</svg>
