<svg width="349" height="402" viewBox="0 0 349 402" fill="none" xmlns="http://www.w3.org/2000/svg">
<path d="M243.468 161.011V360.984L208.846 381.005L174.196 401V201L208.846 181.006L243.468 161.011Z" stroke="#002B4D" stroke-width="2" stroke-linecap="round" stroke-linejoin="round"/>
<path d="M347.39 101L312.768 120.994L278.118 140.989L243.468 120.994L208.845 101L243.468 81.0054L278.118 61.0109L312.768 81.0054L347.39 101Z" stroke="#002B4D" stroke-width="2" stroke-linecap="round" stroke-linejoin="round"/>
<path d="M243.468 40.9894V81.0057L208.846 101V140.989L174.196 120.995V81.0057L208.846 61.0112L243.468 40.9894Z" stroke="#002B4D" stroke-width="2" stroke-linecap="round" stroke-linejoin="round"/>
<path d="M174.195 81.0057V120.995L139.545 140.989V101L104.922 81.0057V40.9894L139.545 61.0112L174.195 81.0057Z" stroke="#002B4D" stroke-width="2" stroke-linecap="round" stroke-linejoin="round"/>
<path d="M243.468 40.9891L208.845 61.0108L174.195 81.0054L139.545 61.0108L104.922 40.9891L139.545 20.9945L174.195 1L208.845 20.9945L243.468 40.9891Z" stroke="#002B4D" stroke-width="2" stroke-linecap="round" stroke-linejoin="round"/>
<path d="M70.2726 140.989V340.988L35.6499 320.994L1 300.999V101L35.6499 120.994L70.2726 140.989Z" stroke="#002B4D" stroke-width="2" stroke-linecap="round" stroke-linejoin="round"/>
<path d="M139.545 101V140.989L104.922 161.01V320.994L70.2722 340.988V140.989L139.545 101Z" stroke="#002B4D" stroke-width="2" stroke-linecap="round" stroke-linejoin="round"/>
<path d="M139.545 101L70.2726 140.989L35.6499 120.994L1 101L35.6499 81.0054L70.2726 61.0109L139.545 101Z" stroke="#002B4D" stroke-width="2" stroke-linecap="round" stroke-linejoin="round"/>
<path d="M174.195 201V401L139.545 381.005L104.922 360.984V161.011L139.545 181.006L174.195 201Z" stroke="#002B4D" stroke-width="2" stroke-linecap="round" stroke-linejoin="round"/>
<path d="M243.468 161.011L208.845 181.006L174.195 201L139.545 181.006L104.922 161.011L139.545 140.989L174.195 120.995L208.845 140.989L243.468 161.011Z" stroke="#002B4D" stroke-width="2" stroke-linecap="round" stroke-linejoin="round"/>
<path d="M347.39 101V300.999L312.767 320.994L278.117 340.988V140.989L312.767 120.994L347.39 101Z" stroke="#002B4D" stroke-width="2" stroke-linecap="round" stroke-linejoin="round"/>
<path d="M278.118 140.989V340.988L243.468 320.994V161.01L208.845 140.989V101L243.468 120.994L278.118 140.989Z" stroke="#002B4D" stroke-width="2" stroke-linecap="round" stroke-linejoin="round"/>
</svg>
