<?xml version="1.0" encoding="utf-8"?>
<!-- Generator: Adobe Illustrator 25.4.1, SVG Export Plug-In . SVG Version: 6.00 Build 0)  -->
<svg version="1.1" id="Livello_1" xmlns="http://www.w3.org/2000/svg" xmlns:xlink="http://www.w3.org/1999/xlink" x="0px" y="0px"
	 viewBox="0 0 349 402" style="enable-background:new 0 0 349 402;" xml:space="preserve">
<style type="text/css">
	.st0{fill:none;stroke:#002B4D;stroke-width:10;stroke-linecap:round;stroke-linejoin:round;}
</style>
<path class="st0" d="M243.5,161v200l-34.6,20l-34.6,20V201l34.6-20L243.5,161z"/>
<path class="st0" d="M347.4,101l-34.6,20l-34.6,20l-34.7-20l-34.6-20l34.6-20l34.7-20l34.6,20L347.4,101z"/>
<path class="st0" d="M243.5,41v40l-34.6,20v40l-34.6-20V81l34.6-20L243.5,41z"/>
<path class="st0" d="M174.2,81v40l-34.7,20v-40l-34.6-20V41l34.6,20L174.2,81z"/>
<path class="st0" d="M243.5,41l-34.6,20l-34.6,20l-34.7-20l-34.6-20l34.6-20l34.7-20l34.6,20L243.5,41z"/>
<path class="st0" d="M70.3,141v200l-34.6-20L1,301V101l34.6,20L70.3,141z"/>
<path class="st0" d="M139.5,101v40l-34.6,20v160l-34.6,20V141L139.5,101z"/>
<path class="st0" d="M139.5,101l-69.3,40l-34.6-20L1,101l34.6-20l34.6-20L139.5,101z"/>
<path class="st0" d="M174.2,201v200l-34.7-20l-34.6-20V161l34.6,20L174.2,201z"/>
<path class="st0" d="M243.5,161l-34.6,20l-34.6,20l-34.7-20l-34.6-20l34.6-20l34.7-20l34.6,20L243.5,161z"/>
<path class="st0" d="M347.4,101v200l-34.6,20l-34.6,20V141l34.6-20L347.4,101z"/>
<path class="st0" d="M278.1,141v200l-34.7-20V161l-34.6-20v-40l34.6,20L278.1,141z"/>
</svg>
